<svg data-v-0e319eee="" width="90" height="90" viewBox="0 0 90 90" fill="none" xmlns="http://www.w3.org/2000/svg" class="icon__component" style="width: 90px; height: 90px; transform: rotate(0deg); pointer-events: auto;"><g clip-path="url(#clip0_5034_17098)"><path d="M50.1875 28.4399H51.9175V61.1099H50.1875V28.4399Z" fill="#8F1C20"></path><path d="M39.8081 28.4399H38.0781V61.1099H39.8081V28.4399Z" fill="#8F1C20"></path><path d="M55.5 28.4399H57V61.1099H55.5V28.4399Z" fill="#8F1C20"></path><path d="M35.0022 28H33.2422V61.56H35.0022V28Z" fill="#8F1C20"></path><path d="M60.5625 28.4399H61.9425V61.9999H60.5625V28.4399Z" fill="#8F1C20"></path><path d="M29.4425 28H28.0625V61.56H29.4425V28Z" fill="#8F1C20"></path><path d="M65.3984 40.46H67.1284V61.55H65.3984V40.46Z" fill="#8F1C20"></path><path d="M24.5972 40.46H22.8672V61.55H24.5972V40.46Z" fill="#8F1C20"></path><path d="M70.5 38.74H71.97V61.56H70.5V38.74Z" fill="#8F1C20"></path><path d="M19.5012 38.1299H18.0312V61.5599H19.5012V38.1299Z" fill="#8F1C20"></path><path d="M75.4297 28H77.1597V61.56H75.4297V28Z" fill="#8F1C20"></path><path d="M14.5737 28H12.8438V61.56H14.5737V28Z" fill="#8F1C20"></path><path d="M80.5 28.8799H82V60.2299H80.5V28.8799Z" fill="#8F1C20"></path><path d="M9.88 28.4399H8.5V60.1099H9.88V28.4399Z" fill="#8F1C20"></path><path d="M5.49719 30.52H4.11719V56.96H5.49719V30.52Z" fill="#8F1C20"></path><path d="M84.6172 31.1499H85.9972V56.9699H84.6172V31.1499Z" fill="#8F1C20"></path><path fill-rule="evenodd" clip-rule="evenodd" d="M89 36.59V33.69C89 31.05 81.8 28 80.37 28H54.13C50.52 28.03 46.41 28.38 46.41 29.32V32.36H43.57V29.32C43.58 28.38 39.47 28.03 35.86 28H35.85H35.35H9.63C8.21 28 1 31.05 1 33.69V36.59C1 39.95 1 44.91 1 49.44C1 54.22 6.07 61.81 10.74 61.81C11.61 61.81 13.12 61.84 15 61.87C23.22 62.02 38.71 62.3 40.58 61.03C41.72 60.06 42.52 56.61 43.01 53.72H47.01C47.5 56.61 48.3 60.06 49.44 61.03C51.31 62.29 66.79 62.02 75.02 61.87C76.91 61.84 78.41 61.81 79.28 61.81C83.95 61.81 89.01 54.22 89.02 49.44C89.02 44.92 89.02 39.95 89.02 36.59H89ZM71.94 35L68.05 38.56C67.79 38.8 67.37 38.8 67.11 38.56L63.22 35C62.96 34.76 62.96 34.38 63.22 34.14C63.48 33.9 63.9 33.9 64.16 34.14L67.59 37.27L71.01 34.14C71.27 33.9 71.69 33.9 71.95 34.14C72.21 34.38 72.21 34.76 71.95 35H71.94ZM27.1 35L23.21 38.56C22.95 38.8 22.53 38.8 22.27 38.56L18.38 35C18.12 34.76 18.12 34.38 18.38 34.14C18.64 33.9 19.06 33.9 19.32 34.14L22.75 37.27L26.17 34.14C26.43 33.9 26.85 33.9 27.11 34.14C27.37 34.38 27.37 34.76 27.11 35H27.1ZM42.31 49.35C42.31 49.42 42.29 49.52 42.28 49.65C42.25 49.91 42.21 50.29 42.15 50.76C42.03 51.69 41.85 52.94 41.62 54.23C41.38 55.53 41.08 56.84 40.74 57.9C40.41 58.92 40.11 59.47 39.92 59.68C39.87 59.7 39.78 59.73 39.64 59.77C39.4 59.84 39.08 59.9 38.67 59.96C37.86 60.08 36.8 60.18 35.54 60.25C33.03 60.39 29.83 60.44 26.54 60.44C23.25 60.44 19.89 60.39 17.06 60.34C16.35 60.33 15.66 60.31 15.02 60.3C13.13 60.27 11.61 60.24 10.73 60.24C8.91 60.24 6.8 58.71 5.05 56.36C3.3 54 2.26 51.27 2.26 49.43C2.26 47.31 2.26 45.1 2.26 42.99H42.31V49.33C42.31 49.33 42.31 49.33 42.31 49.34V49.35ZM84.95 56.37C83.2 58.72 81.09 60.25 79.27 60.25C78.39 60.25 76.87 60.28 74.98 60.31C74.34 60.32 73.66 60.33 72.94 60.35C70.11 60.4 66.74 60.45 63.46 60.45C60.18 60.45 56.97 60.4 54.46 60.26C53.2 60.19 52.14 60.09 51.33 59.97C50.93 59.91 50.6 59.85 50.36 59.78C50.22 59.74 50.13 59.71 50.08 59.69C49.89 59.48 49.59 58.93 49.26 57.91C48.92 56.85 48.62 55.54 48.38 54.24C48.14 52.95 47.96 51.7 47.85 50.77C47.79 50.31 47.75 49.93 47.72 49.66C47.71 49.53 47.69 49.43 47.69 49.36C47.69 49.36 47.69 49.36 47.69 49.35V43.01H87.74C87.74 45.11 87.74 47.33 87.74 49.45C87.74 51.29 86.7 54.02 84.95 56.38V56.37Z" fill="#CE2026"></path></g><defs><clipPath id="clip0_5034_17098"><rect width="88" height="34" fill="white" transform="translate(1 28)"></rect></clipPath></defs></svg>