<svg data-v-0e319eee="" width="90" height="90" viewBox="0 0 90 90" fill="none" xmlns="http://www.w3.org/2000/svg" class="icon__component" style="width: 90px; height: 90px; transform: rotate(0deg); pointer-events: auto;"><path d="M30.4624 16.072L6.95314 32.2926L22.0278 53.3618C22.0278 53.3618 22.0278 68.5006 22.0278 73.1086C22.0278 77.7167 24.5423 78.7506 27.7705 78.7506C30.9986 78.7506 57.9549 78.7506 62.2267 78.7506C66.4986 78.7506 67.9694 76.7167 67.9694 73.1086C67.9694 69.5006 67.9694 53.3618 67.9694 53.3618L84 30.8738L60.4908 14.6532L51.0105 27.973C47.0026 27.973 42.9946 27.973 38.9867 27.973L30.4624 16.072ZM28.3986 23.0363L30.1034 25.3283L15.9261 35.0254L14.311 32.7334L28.3986 23.0363ZM62.5509 20.963L76.6385 30.6602L75.0234 32.9522L60.846 23.2551L62.5509 20.963ZM30.911 26.4743L38.3586 36.8767L36.9229 37.8464C31.72 37.2907 26.866 40.6138 25.6169 45.6041L24.1813 46.5738L16.8234 36.1715L30.911 26.4743ZM60.0385 24.4011L74.1261 34.0982L66.7682 44.5006L65.3325 43.5309C64.0835 38.5405 59.2295 35.2174 54.0266 35.7732L52.5909 34.8035L60.0385 24.4011ZM34.0516 39.3451C34.3301 39.9826 34.6366 40.6265 35.0386 41.1963L42.9348 52.2158C40.6119 52.7405 38.5826 54.1284 37.2818 56.0946L29.3856 45.0752C28.9807 44.511 28.5508 43.9623 28.0397 43.4884C29.3547 41.3388 31.5506 39.8246 34.0516 39.3451ZM56.539 37.8573C59.0399 38.3368 61.2358 39.851 62.5509 42.0006C62.0398 42.4745 61.6098 43.0232 61.205 43.5874L52.7154 56.0946C51.4146 54.1284 49.3853 52.7405 47.0624 52.2158L55.552 39.7085C55.954 39.1387 56.2605 38.4948 56.539 37.8573ZM44.6397 53.3618C44.886 53.3584 45.1288 53.3618 45.3575 53.3618C45.8721 53.3843 46.3639 53.4979 46.8829 53.6262C51.0349 54.6503 53.5811 58.8034 52.5359 62.8826C52.3636 63.554 52.6917 64.1957 53.3435 64.4694C54.5816 64.9707 56.1086 65.6302 57.0224 66.1443C57.9362 66.6585 57.858 67.4603 57.3813 68.0837C56.5084 69.2262 55.4037 70.2206 54.2408 71.081C51.477 73.1206 48.2088 74.0628 44.9986 74.0783C41.7884 74.0628 38.5202 73.1206 35.7564 71.081C34.5935 70.2206 33.4888 69.2262 32.6159 68.0837C32.1392 67.4603 32.061 66.6585 32.9748 66.1443C33.8886 65.6302 35.4156 64.9707 36.6537 64.4694C37.3055 64.1957 37.6336 63.554 37.4613 62.8826C36.4161 58.8034 38.9623 54.6503 43.1143 53.6262C43.6333 53.4979 44.1251 53.3843 44.6397 53.3618Z" fill="#CE2026"></path><path d="M48.6804 60.6702C48.6804 58.6741 47.0334 57.0541 44.9986 57.0541C42.9638 57.0541 41.3168 58.6741 41.3168 60.6702C41.3168 62.6663 42.9638 64.2863 44.9986 64.2863C47.0334 64.2863 48.6804 62.6663 48.6804 60.6702Z" fill="#CE2026"></path><path d="M68.689 9.83179L86.4545 21.7443V27.279L85.1093 29.1175L61.9091 13.5631L63.2571 11.7246L68.689 9.83179Z" fill="#CE2026"></path><path d="M29.044 35.3577C29.044 34.0246 27.9444 32.947 26.5895 32.947C25.2346 32.947 24.135 34.0246 24.135 35.3577C24.135 36.6884 25.2346 37.7684 26.5895 37.7684C27.9444 37.7684 29.044 36.6884 29.044 35.3577Z" fill="#CE2026"></path><path d="M48.6804 60.6702C48.6804 58.6741 47.0334 57.0541 44.9986 57.0541C42.9638 57.0541 41.3168 58.6741 41.3168 60.6702C41.3168 62.6663 42.9638 64.2863 44.9986 64.2863C47.0334 64.2863 48.6804 62.6663 48.6804 60.6702Z" fill="#CE2026"></path><path d="M66.8145 33.2845C66.8145 31.9513 65.7149 30.8738 64.36 30.8738C63.0051 30.8738 61.9054 31.9513 61.9054 33.2845C61.9054 34.6152 63.0051 35.6952 64.36 35.6952C65.7149 35.6952 66.8145 34.6152 66.8145 33.2845Z" fill="#CE2026"></path><path d="M24.0001 13.0006L5.60938 24.9195V30.4541L6.9546 32.2926L30.4016 16.1139L29.0001 14.0006L24.0001 13.0006Z" fill="#CE2026"></path><mask id="mask0_5034_17076" style="mask-type:alpha;" maskUnits="userSpaceOnUse" x="2" y="7" width="43" height="76"><rect x="2" y="7.00049" width="43" height="75" fill="#151515" fill-opacity="0.4"></rect></mask><g mask="url(#mask0_5034_17076)"><path d="M30.4635 16.0719L6.95424 32.2925L22.0289 53.3617C22.0289 53.3617 22.0289 67.5005 22.0289 73.1085C22.0289 78.7166 26.0434 78.7505 27.7716 78.7505C29.4997 78.7505 50.7424 78.7505 62.2278 78.7505L67.9705 73.1085V53.3617L83.0452 32.2925L59.5359 16.0719L51.0116 27.9729C47.0037 27.9729 42.9957 27.9729 38.9878 27.9729L30.4635 16.0719ZM28.3997 23.0362L30.1045 25.3282L15.9272 35.0254L14.3121 32.7333L28.3997 23.0362ZM61.5997 23.0362L75.6873 32.7333L74.0722 35.0254L59.8948 25.3282L61.5997 23.0362ZM30.9121 26.4743L38.3597 36.8766L36.924 37.8463C31.7211 37.2906 26.8671 40.6137 25.618 45.604L24.1824 46.5737L16.8245 36.1714L30.9121 26.4743ZM59.0873 26.4743L73.1749 36.1714L65.817 46.5737L64.3813 45.604C63.1323 40.6137 58.2783 37.2906 53.0754 37.8463L51.6397 36.8766L59.0873 26.4743ZM34.0527 39.345C34.3312 39.9825 34.6377 40.6264 35.0397 41.1962L42.9359 52.2157C40.613 52.7404 38.5837 54.1283 37.2829 56.0945L29.3867 45.0751C28.9818 44.5109 28.5519 43.9622 28.0408 43.4883C29.3558 41.3387 31.5517 39.8245 34.0527 39.345ZM55.9467 39.345C58.4477 39.8245 60.6436 41.3387 61.9586 43.4883C61.4475 43.9622 61.0176 44.5109 60.6127 45.0751L52.7165 56.0945C51.4157 54.1283 49.3864 52.7404 47.0635 52.2157L54.9597 41.1962C55.3617 40.6264 55.6682 39.9825 55.9467 39.345ZM44.6408 53.3617C44.8871 53.3583 45.1299 53.3617 45.3586 53.3617C45.8732 53.3843 46.365 53.4978 46.884 53.6262C51.036 54.6502 53.5822 58.8034 52.537 62.8825C52.3647 63.5539 52.6928 64.1957 53.3446 64.4693C54.5827 64.9707 56.1097 65.6301 57.0235 66.1442C57.9373 66.6584 57.8591 67.4602 57.3824 68.0837C56.5095 69.2262 55.4048 70.2206 54.2419 71.081C51.4781 73.1206 48.2099 74.0627 44.9997 74.0782C41.7895 74.0627 38.5213 73.1206 35.7575 71.081C34.5946 70.2206 33.4899 69.2262 32.617 68.0837C32.1403 67.4602 32.0621 66.6584 32.9759 66.1442C33.8897 65.6301 35.4167 64.9707 36.6548 64.4693C37.3066 64.1957 37.6347 63.5539 37.4624 62.8825C36.4172 58.8034 38.9634 54.6502 43.1154 53.6262C43.6344 53.4978 44.1262 53.3843 44.6408 53.3617Z" fill="black"></path><path d="M48.6815 60.6701C48.6815 58.6741 47.0345 57.0541 44.9997 57.0541C42.9649 57.0541 41.3179 58.6741 41.3179 60.6701C41.3179 62.6662 42.9649 64.2862 44.9997 64.2862C47.0345 64.2862 48.6815 62.6662 48.6815 60.6701Z" fill="black"></path><path d="M67.7342 11.2505L85.4997 23.163V28.6977L84.1545 30.5362L60.9542 14.9818L62.3023 13.1433L67.7342 11.2505Z" fill="black"></path><path d="M29.0451 35.3576C29.0451 34.0245 27.9455 32.9469 26.5906 32.9469C25.2357 32.9469 24.1361 34.0245 24.1361 35.3576C24.1361 36.6883 25.2357 37.7683 26.5906 37.7683C27.9455 37.7683 29.0451 36.6883 29.0451 35.3576Z" fill="black"></path><path d="M48.6815 60.6701C48.6815 58.6741 47.0345 57.0541 44.9997 57.0541C42.9649 57.0541 41.3179 58.6741 41.3179 60.6701C41.3179 62.6662 42.9649 64.2862 44.9997 64.2862C47.0345 64.2862 48.6815 62.6662 48.6815 60.6701Z" fill="black"></path><path d="M65.8633 35.3576C65.8633 34.0245 64.7637 32.9469 63.4088 32.9469C62.0539 32.9469 60.9542 34.0245 60.9542 35.3576C60.9542 36.6883 62.0539 37.7683 63.4088 37.7683C64.7637 37.7683 65.8633 36.6883 65.8633 35.3576Z" fill="black"></path><path d="M24 13.0068L5.60932 24.9194V30.454L6.95424 32.2925L30.6127 16.2802L29 14.0005L24 13.0068Z" fill="black"></path></g></svg>