<?xml version="1.0" standalone="no"?>
<!DOCTYPE svg PUBLIC "-//W3C//DTD SVG 20010904//EN"
 "http://www.w3.org/TR/2001/REC-SVG-20010904/DTD/svg10.dtd">
<svg version="1.0" xmlns="http://www.w3.org/2000/svg"
 width="197.000000pt" height="143.000000pt" viewBox="0 0 197.000000 143.000000"
 preserveAspectRatio="xMidYMid meet">

<g transform="translate(0.000000,143.000000) scale(0.100000,-0.100000)"
fill="#fdcc0d" stroke="none">
<path d="M960 1397 c-54 -27 -65 -36 -65 -57 0 -23 4 -25 47 -28 36 -2 54 2
77 19 42 31 154 38 217 14 55 -21 107 -65 141 -118 20 -32 23 -48 21 -105 l-3
-67 -192 -3 -193 -2 -4 22 c-3 13 -7 32 -8 43 -3 17 -11 20 -53 20 -48 0 -50
-1 -53 -30 -5 -39 -17 -53 -50 -57 l-27 -3 0 -235 0 -235 373 -3 372 -2 -2
237 -3 238 -30 5 -30 5 -5 85 c-7 100 -22 134 -91 201 -70 69 -132 89 -267 89
-100 0 -111 -3 -172 -33z m265 -432 c30 -15 55 -50 55 -79 0 -7 -9 -25 -20
-39 -26 -32 -25 -71 1 -141 32 -82 26 -87 -78 -84 -83 3 -88 4 -91 26 -2 13 4
41 12 63 21 51 20 110 -1 147 -24 41 -9 81 37 104 43 22 44 22 85 3z"/>
<path d="M544 1249 c-39 -11 -69 -41 -104 -105 -32 -57 -59 -74 -117 -74 -34
0 -43 -4 -49 -22 -5 -16 -1 -27 16 -40 12 -10 28 -18 36 -18 25 0 32 -33 21
-96 -9 -52 -7 -69 8 -115 11 -30 22 -88 25 -129 l5 -75 43 -7 c24 -4 54 -3 67
2 22 8 25 16 25 59 0 28 6 53 13 59 7 6 60 13 118 14 l104 3 3 139 c2 105 -1
141 -10 148 -7 4 -75 8 -150 8 -75 0 -139 4 -142 9 -8 12 67 141 95 167 19 17
38 19 229 19 l208 0 55 -52 c31 -29 62 -53 71 -53 24 0 46 11 46 25 0 17 -113
123 -145 135 -33 12 -428 12 -471 -1z"/>
<path d="M854 296 c-44 -19 -64 -69 -64 -156 0 -69 2 -74 34 -106 32 -32 38
-34 103 -34 107 0 143 40 143 158 0 66 -26 117 -70 139 -32 16 -107 16 -146
-1z m114 -66 c43 -41 41 -124 -5 -160 -34 -26 -44 -25 -76 8 -72 75 6 222 81
152z"/>
<path d="M1268 295 c-42 -23 -62 -70 -62 -145 0 -73 21 -121 61 -139 37 -17
145 -14 172 5 67 48 69 209 2 269 -29 26 -134 32 -173 10z m113 -58 c55 -42
48 -146 -12 -178 -71 -37 -126 105 -64 166 26 27 51 31 76 12z"/>
<path d="M0 150 l0 -150 35 0 35 0 0 150 0 150 -35 0 -35 0 0 -150z"/>
<path d="M110 151 l0 -151 35 0 35 0 1 83 1 82 21 -83 21 -82 36 0 36 0 21 88
21 87 1 -87 1 -88 35 0 35 0 0 151 0 150 -52 -3 -52 -3 -19 -72 c-11 -40 -23
-73 -27 -73 -4 0 -16 33 -26 73 l-19 72 -52 3 -53 3 0 -150z"/>
<path d="M453 150 l0 -150 34 0 33 0 1 88 c1 75 2 82 11 52 41 -149 37 -140
73 -140 l33 0 20 83 20 82 1 -82 1 -83 35 0 35 0 0 150 0 150 -49 0 -50 0 -15
-52 c-8 -29 -18 -68 -23 -87 -9 -33 -10 -32 -33 52 l-24 87 -52 0 -51 0 0
-150z"/>
<path d="M1530 150 l0 -150 35 0 35 0 0 60 0 60 55 0 55 0 0 35 0 35 -55 0
c-52 0 -55 1 -55 25 0 24 2 25 65 25 l65 0 0 30 0 30 -100 0 -100 0 0 -150z"/>
<path d="M1770 150 l0 -150 35 0 35 0 0 60 0 59 58 3 c56 3 57 3 60 36 l3 32
-60 0 c-58 0 -61 1 -61 25 0 24 2 25 65 25 l65 0 0 30 0 30 -100 0 -100 0 0
-150z"/>
</g>
</svg>
