<svg data-v-0e319eee="" width="91" height="91" viewBox="0 0 91 91" fill="none" xmlns="http://www.w3.org/2000/svg" class="icon__component" style="width: 90px; height: 90px; transform: rotate(0deg); pointer-events: auto;"><g clip-path="url(#clip0_5034_16931)"><path d="M90.7711 31.5369L88.4527 27.0565C87.9538 26.0978 86.7798 25.7261 85.8114 26.2152L77.5646 30.4804L76.4103 28.2598C76.1755 27.8 75.7646 27.4478 75.2657 27.2913C74.7766 27.1348 74.2385 27.1837 73.769 27.4184L63.4777 32.7402L62.5972 33.2C62.6657 32.4956 62.5385 31.7717 62.1962 31.0967C61.2277 29.2282 58.919 28.4848 57.0407 29.4532C55.1625 30.4217 54.4288 32.7304 55.3972 34.6087C55.7396 35.2641 56.2483 35.7924 56.8744 36.1543L56.1603 36.5261L33.2005 48.4021C32.7407 48.6369 32.3885 49.0478 32.232 49.5467C32.0755 50.0456 32.1244 50.5739 32.3592 51.0434L32.7114 51.7282L26.4309 54.9761C25.4722 55.475 25.1005 56.6489 25.5896 57.6174L27.1255 60.5913C22.7918 62.8608 10.9353 67.8793 4.42984 58.9967C2.33637 56.1304 2.40484 52.6771 4.64506 48.7348C9.77115 39.7739 23.9559 31.7913 27.2527 32.0945L27.4385 30.1478C23.144 29.7467 8.33311 38.3456 2.98202 47.7565C0.360279 52.3641 0.330932 56.6489 2.88419 60.1413C6.13202 64.5826 10.4853 66.0206 14.7309 66.0206C20.1407 66.0206 25.3842 63.7021 28.0451 62.313L29.2777 64.7C29.5125 65.1598 29.9233 65.5119 30.4222 65.6684C30.6179 65.7271 30.8135 65.7565 31.019 65.7565C31.332 65.7565 31.6353 65.6782 31.919 65.5413L38.1994 62.2934L38.7864 63.438C39.1385 64.113 39.8135 64.4945 40.5277 64.4945C40.8309 64.4945 41.1342 64.4261 41.4277 64.2793L65.1798 51.9924C65.082 52.7554 65.2092 53.538 65.5712 54.2424C66.2462 55.5532 67.5864 56.3065 68.9755 56.3065C69.5625 56.3065 70.169 56.1695 70.7266 55.8761C72.6048 54.9076 73.3385 52.5989 72.3701 50.7206C72.0081 50.0163 71.4505 49.4684 70.7657 49.1065L82.0059 43.2956C82.9646 42.7967 83.3364 41.6228 82.8472 40.6543L81.6929 38.4337L89.9396 34.1684C90.3994 33.9337 90.7516 33.5228 90.9081 33.0239C91.0646 32.525 91.0157 31.9967 90.7809 31.5271L90.7711 31.5369ZM57.9603 31.1945C58.2342 31.0576 58.5277 30.9891 58.8114 30.9891C59.4864 30.9891 60.1418 31.3608 60.4744 31.9967C60.944 32.9163 60.5918 34.0413 59.6722 34.5108C59.232 34.7358 58.7233 34.7848 58.244 34.6282C57.7646 34.4815 57.3831 34.1489 57.1483 33.7087C56.6788 32.7891 57.0309 31.6641 57.9505 31.1945H57.9603ZM69.8266 54.1445C68.907 54.6141 67.782 54.2619 67.3125 53.3424C67.0875 52.9021 67.0385 52.3934 67.1951 51.9141C67.3418 51.4348 67.6744 51.0532 68.1146 50.8184C68.3788 50.6815 68.6722 50.613 68.9755 50.613C69.1614 50.613 69.357 50.6424 69.5429 50.7011C70.0222 50.8478 70.4038 51.1804 70.6385 51.6206C71.1081 52.5402 70.7559 53.6652 69.8364 54.1348L69.8266 54.1445ZM31.8701 61.1684L30.0016 57.5489L34.5407 55.2011L36.1255 58.2728L36.4092 58.8206L31.8701 61.1684ZM41.369 59.9065L40.782 58.7619L39.1972 55.7L36.7516 50.9848L56.0722 40.9869L60.6896 49.9087L41.369 59.9065ZM71.6461 44.2445L67.0288 35.3228L73.8472 31.8011L78.4646 40.7228L71.6559 44.2445H71.6461Z" fill="#CE2026"></path></g><defs><clipPath id="clip0_5034_16931"><rect width="90" height="40.0207" fill="white" transform="translate(1 26)"></rect></clipPath></defs></svg>