<svg data-v-0e319eee="" width="90" height="90" viewBox="0 0 90 90" fill="none" xmlns="http://www.w3.org/2000/svg" class="icon__component" style="width: 90px; height: 90px; transform: rotate(0deg); pointer-events: auto;"><path d="M39.882 28.2037C24.8313 38.8176 24.7826 38.8699 24.6645 38.9965C24.3725 39.3087 24.3494 39.6677 24.613 39.7982C24.8236 39.9027 25.1535 39.8296 25.4265 39.6365C25.4476 39.6216 25.4683 39.606 25.4886 39.5897C26.0333 39.1862 34.7019 33.0656 40.4496 29.0122L40.4511 29.0112C40.8107 28.7569 40.9754 28.3705 40.8188 28.1474C40.662 27.9243 40.2426 27.9495 39.882 28.2037Z" fill="#CE2026"></path><path d="M20.446 18.1778C20.3553 17.3926 21.1686 16.8175 21.8787 17.1647L33.3124 22.755C33.9948 23.0887 34.0708 24.0313 33.4506 24.4699L23.4775 31.5227C22.8574 31.9612 21.9939 31.5755 21.9067 30.821L20.446 18.1778Z" fill="#CE2026"></path><path d="M71.5327 27.1519L55.6767 28.4413L54.171 26.3121C52.2682 23.6214 49.4842 22.075 46.1197 21.8399C44.2915 21.7122 42.7688 22.0015 42.0419 22.1792L41.0641 20.7965L42.7291 19.6191C43.5308 19.0522 43.7217 17.9388 43.1548 17.1371L40.0682 12.7725C39.5013 11.9709 38.3879 11.7799 37.5863 12.3468L35.9213 13.5243L31.9119 7.85474C31.542 7.33169 30.939 7.0112 30.2985 6.997L27.3339 6.93162C26.9019 6.9222 26.4695 7.05439 26.1166 7.30395L9.73698 18.8874C9.38408 19.1369 9.11536 19.5006 8.9804 19.911L8.05402 22.7279C7.85388 23.3364 7.95519 24.0119 8.32508 24.535L18.4551 38.8594C18.0454 39.4855 17.2653 40.825 16.7764 42.5911C15.877 45.8415 16.4071 48.9818 18.31 51.6725L19.6276 53.5357C19.6276 53.5357 19.6362 53.5296 19.6332 53.5318C19.6301 53.5339 37.984 79.4836 37.984 79.4836L39.4854 81.6158C41.5891 84.5906 45.7209 85.2993 48.6957 83.1956L73.7666 65.4659C76.7414 63.3621 77.4501 59.2304 75.3463 56.2556L73.8406 54.1264L80.3401 39.6064C81.6135 36.7614 81.2865 33.4131 79.4869 30.8683C77.6872 28.3235 74.6392 26.8994 71.5327 27.1519ZM9.36187 23.8018C9.22329 23.6058 9.18541 23.3527 9.26025 23.1248L10.1866 20.3078C10.2372 20.1538 10.3379 20.0177 10.4702 19.9241L26.8499 8.34064C26.9823 8.24707 27.144 8.1976 27.3061 8.20115L30.2708 8.26644C30.5108 8.27172 30.7367 8.3919 30.8753 8.58785L44.0369 27.1991C44.1754 27.3951 44.2133 27.6483 44.1385 27.8762L43.2121 30.6931C43.1615 30.847 43.0609 30.9832 42.9286 31.0768L26.5488 42.6603C26.4165 42.7539 26.2547 42.8033 26.0926 42.7998L23.1279 42.7345C22.888 42.7292 22.662 42.609 22.5235 42.4131L9.36187 23.8018ZM74.3095 56.9888C76.009 59.3919 75.4365 62.7296 73.0334 64.4291L47.9625 82.1588C45.5594 83.8582 42.2216 83.2858 40.5222 80.8826L19.3467 50.9393C17.656 48.5485 17.1991 45.8677 17.9887 42.9715C18.3384 41.6892 18.8679 40.6421 19.2522 39.9869L21.4867 43.1465C21.8566 43.6695 22.4596 43.99 23.1001 44.0042L26.0648 44.0695C26.4969 44.0791 26.9292 43.9468 27.282 43.6973L43.6617 32.1138C44.0146 31.8642 44.2833 31.5006 44.4183 31.0902L45.3447 28.2732C45.5448 27.6647 45.4435 26.9892 45.0736 26.4662L42.8393 23.3067C43.5853 23.1627 44.7491 23.0124 46.0744 23.11C49.0682 23.3306 51.4434 24.6547 53.1342 27.0455L74.3095 56.9888ZM74.8019 40.9639C72.3088 42.7269 68.8461 42.1331 67.0831 39.6401C65.32 37.147 65.9139 33.6845 68.4071 31.9213C70.9 30.1583 74.3627 30.7521 76.1258 33.2452C77.8888 35.7383 77.2948 39.2009 74.8019 40.9639Z" fill="#CE2026"></path><path d="M39.2903 43.3049C32.5269 48.0879 30.9212 57.4494 35.7042 64.2128C40.4872 70.9762 49.8487 72.5819 56.6121 67.7989C63.3755 63.016 64.9812 53.6545 60.1982 46.8911C55.4119 40.1316 46.0556 38.5268 39.2903 43.3049ZM55.8037 66.6559C49.671 70.9928 41.1842 69.5372 36.8472 63.4045C32.5103 57.2718 33.966 48.7849 40.0987 44.448C46.2313 40.111 54.7182 41.5667 59.0551 47.6994C63.3838 53.8334 61.929 62.315 55.8037 66.6559ZM47.5984 44.3282L46.7605 44.9207L49.7254 49.1133L41.3158 55.0604L38.3509 50.8679L37.4865 51.4792C36.8115 53.2088 36.5762 55.0789 36.8017 56.9218C37.0271 58.7647 37.7063 60.5229 38.7783 62.0388C39.8503 63.5547 41.2817 64.781 42.9442 65.6077C44.6066 66.4344 46.4482 66.8357 48.3039 66.7757L49.1673 66.1651L46.2024 61.9725L54.612 56.0254L57.577 60.218L58.4159 59.6247C59.0909 57.8951 59.3262 56.025 59.1007 54.1821C58.8753 52.3391 58.1961 50.5809 57.1241 49.065C56.052 47.5491 54.6206 46.3229 52.9582 45.4962C51.2957 44.6695 49.4541 44.2682 47.5984 44.3282ZM46.831 65.3402C45.4516 65.1866 44.1204 64.7426 42.9251 64.0373C41.7298 63.3321 40.6974 62.3815 39.8961 61.2484C39.0947 60.1152 38.5426 58.8251 38.2759 57.4631C38.0093 56.101 38.0342 54.698 38.3491 53.3463L46.831 65.3402ZM53.7867 54.8561L45.3771 60.8032L42.1242 56.2035L50.5338 50.2563L53.7867 54.8561ZM57.5352 57.7321L49.0714 45.7637C50.4446 45.9242 51.7687 46.372 52.9576 47.0779C54.1464 47.7837 55.1734 48.7319 55.9717 49.8608C56.77 50.9897 57.3218 52.2739 57.5912 53.63C57.8606 54.9862 57.8415 56.3838 57.5352 57.7321Z" fill="#CE2026"></path><path d="M69.1367 32.9604C67.2153 34.3192 66.7576 36.9879 68.1163 38.9092C69.475 40.8304 72.1437 41.2882 74.0651 39.9294C75.9864 38.5707 76.4441 35.902 75.0854 33.9807C73.7267 32.0594 71.058 31.6017 69.1367 32.9604Z" fill="#CE2026"></path></svg>