<?xml version="1.0" encoding="utf-8"?>
<!-- Generator: Adobe Illustrator 25.0.1, SVG Export Plug-In . SVG Version: 6.00 Build 0)  -->
<svg version="1.1" id="_x39_912e19d-fdfe-49fa-9403-7ddeae3da869"
	 xmlns="http://www.w3.org/2000/svg" xmlns:xlink="http://www.w3.org/1999/xlink" x="0px" y="0px" viewBox="0 0 113.4 113.4"
	 style="enable-background:new 0 0 113.4 113.4;" xml:space="preserve">
<style type="text/css">
	.st0{fill:#242B38;}
	.st1{fill:#F02429;}
</style>
<path class="st0" d="M82.7,30c-4.3-4-9.5-5.5-13.8-3.5l0,0l-15.6,7.3c-2.4-0.6-4.9-0.3-7.2,0.7l0,0l-38.4,18
	c-7.2,3.4-9.1,14.2-4.2,24.7c2,4.6,5.4,8.5,9.6,11.3c2.3,1.5,4.9,2.3,7.6,2.4c1.5,0,3-0.3,4.4-1l0,0l38.4-18l0,0
	c1.9-0.9,3.4-2.3,4.5-4l16.5-7.7l0,0c5.6-2.6,7.6-10.1,5.3-18.1c9.3-4.2,13.4-12.9,23.5-22.9C103.2,24.3,91.7,23.4,82.7,30z
	 M67,33.4c0.1-0.2,0.2-0.4,0.2-0.6s0.2-0.3,0.2-0.4s0.2-0.3,0.2-0.4c0.1-0.1,0.2-0.3,0.3-0.4s0.2-0.3,0.3-0.4s0.2-0.2,0.3-0.4
	s0.2-0.2,0.3-0.3s0.2-0.2,0.4-0.3s0.2-0.2,0.3-0.3s0.3-0.1,0.4-0.2s0.2-0.2,0.4-0.2c0.8-0.4,1.7-0.5,2.5-0.5c1.5,0,3,0.4,4.3,1.2
	c-0.2,0.1-0.3,0.3-0.2,0.5s0.3,0.3,0.5,0.2l0,0l0.5-0.2c0.6,0.4,1.1,0.8,1.7,1.2c-4.3,0.4-8.6,1.1-12.8,1.9L67,33.4z M42.6,78
	l-14.2,6.7c-0.4,0.1-0.8-0.1-1-0.4c-0.1-0.3,0-0.7,0.3-0.9L42,76.7c0.4,0,0.8,0.2,0.8,0.7C42.9,77.6,42.8,77.8,42.6,78z M51.2,74
	l-4.8,2.3c-0.3,0.3-0.8,0.3-1.1,0c-0.3-0.3-0.3-0.8,0-1.1c0.1-0.1,0.3-0.2,0.5-0.2l4.8-2.3c0.4-0.1,0.8,0.2,0.9,0.6
	C51.5,73.6,51.4,73.9,51.2,74L51.2,74z M65.3,65.2l-2.7,1.2c-0.2,0.1-0.3,0.3-0.2,0.5c0.1,0.1,0.2,0.2,0.4,0.2c0.1,0,0.1,0,0.2,0
	l1.6-0.8C63.9,67.3,63,68,62,68.5c-2.4,1.1-5.4,0.7-8.5-1.2c-3.6-2.4-6.4-5.8-8.2-9.7c-1.9-3.9-2.7-8.2-2.2-12.5
	c0.1-0.4,0.1-0.9,0.2-1.3c0-0.1,0.1-0.3,0.1-0.4s0.1-0.5,0.2-0.8s0.1-0.2,0.2-0.4s0.2-0.5,0.3-0.7s0.1-0.2,0.2-0.3s0.2-0.4,0.3-0.6
	s0.2-0.2,0.2-0.3s0.2-0.4,0.4-0.5s0.2-0.2,0.3-0.3s0.3-0.3,0.4-0.5s0.2-0.2,0.3-0.3s0.3-0.2,0.5-0.4s0.2-0.1,0.4-0.2
	s0.3-0.2,0.5-0.3c0.9-0.4,1.8-0.6,2.8-0.6c1,0,1.9,0.2,2.8,0.5l-1.5,0.7c-0.2,0.1-0.3,0.3-0.2,0.5s0.3,0.3,0.5,0.2l0,0l2.2-1
	c0.6,0.3,1.2,0.6,1.8,1c-3.4,3.2-6.1,8-7.8,15.4c7.2,2.7,13.2,3.2,18.2,2.2C67,59.6,66.5,62.6,65.3,65.2z M48.4,54.5
	c8.2-17.9,25.9-16.8,42.5-22.9C75.3,43.1,66.1,59.6,48.4,54.5z M87.2,50.7l-1,0.5c-0.2,0.1-0.3,0.3-0.2,0.5s0.3,0.3,0.5,0.2l0.6-0.3
	c-0.6,2.6-1.9,4.6-3.9,5.5c-0.3,0.1-0.6,0.2-0.8,0.3l0,0c-0.2,0-0.4,0.1-0.6,0.1s-0.3,0.1-0.4,0.1h-0.2c-2.5,0.2-5.3-1-7.8-3.2
	c4.9-2.5,8.8-6.6,12.1-10.9c0.4-0.1,0.8-0.2,1.2-0.3C87.4,45.6,87.6,48.1,87.2,50.7L87.2,50.7z M88.9,38.9c1.1-1.7,2.2-3.3,3.3-4.8
	l0.3-0.4l0.6-0.9l0.4-0.6l0.5-0.7l0.5-0.7l0.5-0.6l0.6-0.7l0.3-0.4c0.3-0.4,0.6-0.7,1-1.1c-0.6,0.2-1.2,0.4-1.9,0.6l-0.6,0.2
	l-1.3,0.4l-0.7,0.2l-1.3,0.3l-0.6,0.1L89,30.3l-0.8,0.2l-0.9,0.2l-1,0.2l-0.7,0.1l-1.1,0.2l0,0c5.7-2.2,12.2-3.2,19.2-7
	C97.8,29.9,94.5,35.4,88.9,38.9z"/>
<path class="st1" d="M83.5,35.8c-13.7,5.1-28.2,4.1-35,18.9C63,58.9,70.6,45.2,83.5,35.8z"/>
</svg>
