<svg data-v-0e319eee="" width="90" height="90" viewBox="0 0 90 90" fill="none" xmlns="http://www.w3.org/2000/svg" class="icon__component" style="width: 90px; height: 90px; transform: rotate(0deg); pointer-events: auto;"><path fill-rule="evenodd" clip-rule="evenodd" d="M40 56C51.6362 56 61.487 52.472 64.8048 47.6072C63.278 59.6711 52.9784 69 40.5 69C28.5298 69 18.5647 60.4156 16.425 49.0673C20.5639 53.1622 29.5639 56 40 56ZM40 32C51.4163 32 61.1141 35.3959 64.6098 40.1185C63.9204 36.297 62.3451 32.7863 60.1033 29.8017C55.6284 23.8442 48.5136 20 40.5 20C28.9775 20 19.3129 27.9543 16.6976 38.6714C20.9501 34.7176 29.7874 32 40 32ZM40.5 72C33.8496 72 27.7506 69.6393 22.9952 65.7102C22.8854 68.0979 20.9148 70 18.5 70C16.0147 70 14 67.9853 14 65.5C14 63.0154 16.0136 61.0011 18.498 61C15.0457 56.4039 13 50.6908 13 44.5C13 37.8142 15.3859 31.6856 19.3527 26.9193C19.0766 26.9723 18.7915 27 18.5 27C16.0147 27 14 24.9853 14 22.5C14 20.0147 16.0147 18 18.5 18C20.9853 18 23 20.0147 23 22.5C23 22.7915 22.9723 23.0766 22.9193 23.3527C27.6856 19.3859 33.8142 17 40.5 17C47.1858 17 53.3144 19.3859 58.0807 23.3527C58.0277 23.0766 58 22.7915 58 22.5C58 20.0147 60.0147 18 62.5 18C64.9853 18 67 20.0147 67 22.5C67 24.9853 64.9853 27 62.5 27C62.2085 27 61.9234 26.9723 61.6473 26.9193C61.941 27.2722 62.226 27.6325 62.502 28H75.9998C77.6566 28 78.9998 29.3431 78.9998 31V69C78.9998 70.6569 77.6566 72 75.9998 72H40.5ZM21 22.5C21 23.8807 19.8807 25 18.5 25C17.1193 25 16 23.8807 16 22.5C16 21.1193 17.1193 20 18.5 20C19.8807 20 21 21.1193 21 22.5ZM65 22.5C65 23.8807 63.8807 25 62.5 25C61.1193 25 60 23.8807 60 22.5C60 21.1193 61.1193 20 62.5 20C63.8807 20 65 21.1193 65 22.5ZM18.5 68C19.8807 68 21 66.8807 21 65.5C21 64.1193 19.8807 63 18.5 63C17.1193 63 16 64.1193 16 65.5C16 66.8807 17.1193 68 18.5 68ZM18 43C17.4477 43 17 43.4477 17 44C17 44.5523 17.4477 45 18 45L63 45C63.5523 45 64 44.5523 64 44C64 43.4477 63.5523 43 63 43L18 43Z" fill="#CE2026"></path></svg>